# xmcd
#
# Track frame offsets:
#	151
#	25236
#	57215
#	86671
#	108186
#	136080
#	157859
#
# Disc length: 2650 seconds
#
# Revision: 1
# Processed by: cddbd v1.4PL0 Copyright (c) Steve Scherf et al.
# Submitted via: audiograbber 1.82.01
#
DISCID=490a5807
DTITLE=George El Rassi - Jayi Te3tezer
DYEAR=1900
DGENRE=Ethnic
TTITLE0=Mita Achoufak
TTITLE1=La Akteb 3ala Wrak El Chajar
TTITLE2=El Asami
TTITLE3=Ayam El Gharam
TTITLE4=Jayi Te3tezer
TTITLE5=Remch Ayno
TTITLE6=Zay El Hawa
EXTD=
EXTT0=
EXTT1=
EXTT2=
EXTT3=
EXTT4=
EXTT5=
EXTT6=
PLAYORDER=
